<svg aria-hidden="true" style="position: absolute; width: 0; height: 0; overflow: hidden;" version="1.1" xmlns="http://www.w3.org/2000/svg" xmlns:xlink="http://www.w3.org/1999/xlink">
<defs>
<symbol id="icon-upload" viewBox="0 0 42 32">
<path d="M33.958 12.988c-0.427-6.612-5.025-12.988-13.458-12.988-7.713 0-13.661 5.733-13.976 13.384-4.22 1.313-6.524 5.829-6.524 9.116 0 5.061 4.206 9.5 9 9.5h6.5c0.276 0 0.5-0.224 0.5-0.5s-0.224-0.5-0.5-0.5h-6.5c-4.262 0-8-3.972-8-8.5 0-3.051 2.674-8.5 8-8.5h1.5c0.276 0 0.5-0.224 0.5-0.5s-0.224-0.5-0.5-0.5h-1.5c-0.509 0-0.99 0.057-1.459 0.139 0.392-5.99 4.945-12.139 12.959-12.139 8.588 0 12.5 6.739 12.5 13v1.5c0 0.276 0.224 0.5 0.5 0.5s0.5-0.224 0.5-0.5v-1.5c0-0.003 0-0.006 0-0.009 3.019 0.331 7 3.571 7 8.509 0 3.826-3.691 8.5-8 8.5h-7.5c-3.238 0-4.5-1.262-4.5-4.5v-13.717l4.078 4.070c0.098 0.098 0.226 0.147 0.354 0.147s0.256-0.049 0.354-0.146c0.195-0.195 0.195-0.513 0-0.707l-4.461-4.452c-0.594-0.592-1.055-0.592-1.648 0l-4.461 4.452c-0.195 0.194-0.195 0.512 0 0.707s0.512 0.195 0.707 0l4.077-4.071v13.717c0 3.804 1.696 5.5 5.5 5.5h7.5c4.847 0 9-5.224 9-9.5 0-5.167-4.223-9.208-8.042-9.512z"></path>
</symbol>
<symbol id="icon-cone" viewBox="0 0 32 32">
<path d="M27.023 28.99h-22.047l0.015-1.895 2.56-2.207c0 0 4.609 1.52 8.438 1.52 3.773 0 8.523-1.52 8.523-1.52l2.512 2.18v1.922zM8.183 24.119l1.6-5.076h12.413l1.6 5.076c0 0-4.834 1.441-7.77 1.441-2.865 0.001-7.843-1.441-7.843-1.441zM10.73 16.037l1.599-5.075h7.322l1.598 5.075h-10.519zM14.834 3.009h2.31l1.559 4.945h-5.427l1.558-4.945z"></path>
</symbol>
<symbol id="icon-money-bag" viewBox="0 0 32 32">
<path d="M14.017 9.302h3.934v-1.476h-3.934v1.476zM17.922 9.793h-3.905c0 0-6.425 6.333-6.425 12.542 0 6.579 6.732 7.102 6.732 7.102s2.008 0.333 3.257 0c0 0 6.826-0.8 6.826-7.070 0.001-6.272-6.485-12.574-6.485-12.574zM18.211 23.123c-0.158 0.32-0.371 0.588-0.643 0.802-0.271 0.215-0.588 0.376-0.949 0.484-0.046 0.014-0.096 0.019-0.143 0.031v1.092h-0.983v-0.964c-0.012 0.001-0.024 0.003-0.036 0.003-0.279 0-0.538-0.022-0.778-0.067s-0.45-0.101-0.634-0.164c-0.184-0.064-0.337-0.131-0.459-0.201s-0.212-0.132-0.266-0.186c-0.055-0.054-0.093-0.132-0.116-0.234-0.022-0.103-0.034-0.249-0.034-0.441 0-0.129 0.004-0.237 0.013-0.325s0.021-0.158 0.041-0.213c0.019-0.055 0.043-0.093 0.074-0.116 0.031-0.022 0.068-0.034 0.109-0.034 0.059 0 0.141 0.034 0.247 0.103s0.242 0.145 0.409 0.228c0.167 0.084 0.365 0.159 0.597 0.229 0.231 0.068 0.499 0.103 0.803 0.103 0.2 0 0.379-0.024 0.537-0.072s0.293-0.115 0.403-0.203c0.111-0.088 0.195-0.196 0.253-0.325 0.059-0.13 0.088-0.273 0.088-0.433 0-0.183-0.051-0.34-0.15-0.472-0.1-0.131-0.231-0.247-0.391-0.35-0.16-0.102-0.342-0.197-0.546-0.287s-0.415-0.185-0.631-0.284c-0.217-0.1-0.427-0.213-0.631-0.341-0.204-0.127-0.387-0.278-0.547-0.455s-0.29-0.387-0.391-0.628c-0.1-0.241-0.149-0.531-0.149-0.868 0-0.388 0.072-0.728 0.215-1.021s0.338-0.537 0.581-0.73c0.244-0.193 0.531-0.338 0.862-0.434 0.17-0.049 0.346-0.085 0.526-0.108v-1.035h0.983v1.034c0.040 0.005 0.079 0.003 0.118 0.009 0.191 0.029 0.371 0.068 0.537 0.118s0.314 0.105 0.443 0.167 0.215 0.113 0.256 0.155c0.043 0.041 0.070 0.076 0.086 0.105 0.014 0.029 0.025 0.068 0.037 0.116 0.010 0.048 0.018 0.108 0.021 0.182 0.004 0.072 0.006 0.163 0.006 0.271 0 0.121-0.004 0.224-0.010 0.308-0.006 0.083-0.016 0.152-0.031 0.206-0.014 0.055-0.035 0.094-0.062 0.119s-0.062 0.037-0.109 0.037c-0.045 0-0.119-0.028-0.219-0.086-0.1-0.059-0.223-0.121-0.367-0.189-0.146-0.068-0.314-0.13-0.506-0.187-0.193-0.056-0.403-0.083-0.631-0.083-0.18 0-0.336 0.021-0.469 0.065-0.134 0.043-0.245 0.104-0.335 0.18-0.089 0.077-0.156 0.17-0.199 0.277-0.044 0.107-0.065 0.222-0.065 0.342 0 0.18 0.049 0.335 0.146 0.466s0.229 0.248 0.394 0.35c0.164 0.103 0.351 0.198 0.56 0.287 0.208 0.090 0.42 0.185 0.637 0.284 0.217 0.101 0.428 0.214 0.637 0.341s0.395 0.279 0.557 0.456 0.293 0.385 0.393 0.624c0.1 0.24 0.15 0.521 0.15 0.847-0.001 0.422-0.081 0.794-0.239 1.115zM17.891 7.334l1.998-4.919c0 0-1.26 1.046-1.998 1.046s-1.907-1.015-1.907-1.015-1.26 1.015-1.998 1.015c-0.737 0-1.937-0.984-1.937-0.984l2.029 4.857h3.813z"></path>
</symbol>
<symbol id="icon-folder-add" viewBox="0 0 32 32">
<path d="M26 23v-3h1v3h3v1h-3v3h-1v-3h-3v-1h3zM21.6 26v0c-0.383-0.75-0.6-1.6-0.6-2.5 0-3.038 2.462-5.5 5.5-5.5 0.52 0 1.023 0.072 1.5 0.207v-4.207h-27v11.008c0 0.548 0.446 0.992 0.993 0.992h19.607zM22.257 27h-20.264c-1.094 0-1.993-0.891-1.993-1.991v-18.018c0-1.101 0.897-1.991 2.003-1.991h10.997l2 4h11.994c1.109 0 2.006 0.893 2.006 1.995v7.605c1.781 0.91 3 2.763 3 4.9 0 3.038-2.462 5.5-5.5 5.5-1.708 0-3.234-0.779-4.243-2v0 0zM1 13h27v-1.999c0-0.553-0.454-1.001-1.003-1.001h-12.637l-1.96-4h-10.408c-0.548 0-0.992 0.455-0.992 0.992v6.008zM26.5 28c2.485 0 4.5-2.015 4.5-4.5s-2.015-4.5-4.5-4.5c-2.485 0-4.5 2.015-4.5 4.5s2.015 4.5 4.5 4.5v0z"></path>
</symbol>
<symbol id="icon-document-edit" viewBox="0 0 32 32">
<path d="M26.443 12.15l-11.286 11.3-2.606-2.606 11.292-11.294 2.6 2.6zM27.15 11.443l-2.599-2.599 1.727-1.728c0.391-0.391 1.024-0.388 1.417 0.003l1.18 1.177c0.392 0.391 0.395 1.025 0.005 1.416l-1.729 1.731zM11.904 21.611l2.495 2.495-3.135 0.617 0.64-3.113zM22 10v0l-6-7h-10.997c-1.106 0-2.003 0.898-2.003 2.007v22.985c0 1.109 0.891 2.007 1.997 2.007h15.005c1.103 0 1.997-0.898 1.997-1.991v-10.009l7.58-7.58c0.784-0.784 0.786-2.054 0.010-2.83l-1.18-1.179c-0.779-0.779-2.037-0.783-2.83 0.010l-3.58 3.58zM21 19v9.007c0 0.548-0.448 0.993-1 0.993h-15c-0.545 0-1-0.446-1-0.995v-23.009c0-0.54 0.446-0.995 0.996-0.995h10.004v4.994c0 1.119 0.895 2.006 1.998 2.006h4.002l-10 10-1 5 5-1 6-6zM16 4.5l4.7 5.5h-3.703c-0.546 0-0.997-0.452-0.997-1.009v-4.491z"></path>
</symbol>
<symbol id="icon-clipboard-edit" viewBox="0 0 32 32">
<path d="M26.443 13.15l-11.286 11.3-2.606-2.606 11.292-11.294 2.6 2.6zM27.15 12.443l-2.599-2.599 1.727-1.728c0.391-0.391 1.024-0.388 1.417 0.003l1.18 1.177c0.392 0.391 0.395 1.025 0.005 1.416l-1.729 1.731zM11.904 22.611l2.495 2.495-3.135 0.617 0.64-3.113zM22 11v-2.996c0-1.107-0.891-2.004-1.997-2.004h-1.003c0 0.002 0 0.003 0 0.005v0.99c0 1.111-0.897 2.005-2.003 2.005h-8.994c-1.109 0-2.003-0.898-2.003-2.005v-0.99c0-0.002 0-0.003 0-0.005h-1.003c-1.103 0-1.997 0.89-1.997 2.004v20.993c0 1.107 0.891 2.004 1.997 2.004h15.005c1.103 0 1.997-0.89 1.997-2.004v-9.996l7.58-7.58c0.784-0.784 0.786-2.054 0.010-2.83l-1.18-1.179c-0.779-0.779-2.037-0.783-2.83 0.010l-3.58 3.58zM10 5v-1.002c0-1.1 0.898-1.998 2.005-1.998h0.99c1.111 0 2.005 0.895 2.005 1.998v1.002h2.004c0.551 0 0.996 0.447 0.996 0.999v1.002c0 0.556-0.446 0.999-0.996 0.999h-9.009c-0.551 0-0.996-0.447-0.996-0.999v-1.002c0-0.556 0.446-0.999 0.996-0.999h2.004zM12.5 5c0.276 0 0.5-0.224 0.5-0.5s-0.224-0.5-0.5-0.5c-0.276 0-0.5 0.224-0.5 0.5s0.224 0.5 0.5 0.5v0z"></path>
</symbol>
<symbol id="icon-filter" viewBox="0 0 24 24">
<path d="M19.845 4l-6.609 7.814c-0.147 0.173-0.236 0.399-0.236 0.646v6.922l-2-1v-5.922c0.001-0.227-0.077-0.457-0.236-0.646l-6.609-7.814zM22 2h-20c-0.552 0-1 0.448-1 1 0 0.247 0.089 0.473 0.236 0.646l7.764 9.18v6.174c0 0.389 0.222 0.727 0.553 0.894l4 2c0.494 0.247 1.095 0.047 1.342-0.447 0.072-0.146 0.106-0.301 0.105-0.447v-8.174l7.764-9.18c0.357-0.422 0.304-1.053-0.118-1.409-0.189-0.16-0.419-0.238-0.646-0.237z"></path>
</symbol>
<symbol id="icon-clear" viewBox="0 0 24 24">
<path d="M18.984 6.422l-5.578 5.578 5.578 5.578-1.406 1.406-5.578-5.578-5.578 5.578-1.406-1.406 5.578-5.578-5.578-5.578 1.406-1.406 5.578 5.578 5.578-5.578z"></path>
</symbol>
<symbol id="icon-floppy" viewBox="0 0 32 32">
<path d="M30 32h-28c-1.104 0-2-0.896-2-2v-28c0-1.104 0.896-2 2-2h24l6 6v24c0 1.104-0.896 2-2 2zM8 27c0 0.553 0.448 1 1 1h14c0.553 0 1-0.447 1-1v-8c0-0.553-0.447-1-1-1h-14c-0.552 0-1 0.447-1 1v8zM22 5c0-0.553-0.447-1-1-1s-1 0.447-1 1v3c0 0.553 0.447 1 1 1s1-0.447 1-1v-3zM28 7l-3-3h-1v7c0 0.553-0.447 1-1 1h-14c-0.552 0-1-0.447-1-1v-7h-3c-0.552 0-1 0.447-1 1v22c0 0.553 0.448 1 1 1h1v-11c0-0.553 0.448-1 1-1h18c0.553 0 1 0.447 1 1v11h1c0.553 0 1-0.447 1-1v-20z"></path>
</symbol>
<symbol id="icon-bin" viewBox="0 0 32 32">
<path d="M4 10v20c0 1.1 0.9 2 2 2h18c1.1 0 2-0.9 2-2v-20h-22zM10 28h-2v-14h2v14zM14 28h-2v-14h2v14zM18 28h-2v-14h2v14zM22 28h-2v-14h2v14z"></path>
<path d="M26.5 4h-6.5v-2.5c0-0.825-0.675-1.5-1.5-1.5h-7c-0.825 0-1.5 0.675-1.5 1.5v2.5h-6.5c-0.825 0-1.5 0.675-1.5 1.5v2.5h26v-2.5c0-0.825-0.675-1.5-1.5-1.5zM18 4h-6v-1.975h6v1.975z"></path>
</symbol>
<symbol id="icon-credit-card" viewBox="0 0 32 32">
<path d="M29 4h-26c-1.65 0-3 1.35-3 3v18c0 1.65 1.35 3 3 3h26c1.65 0 3-1.35 3-3v-18c0-1.65-1.35-3-3-3zM3 6h26c0.542 0 1 0.458 1 1v3h-28v-3c0-0.542 0.458-1 1-1zM29 26h-26c-0.542 0-1-0.458-1-1v-9h28v9c0 0.542-0.458 1-1 1zM4 20h2v4h-2zM8 20h2v4h-2zM12 20h2v4h-2z"></path>
</symbol>
<symbol id="icon-checkmark" viewBox="0 0 32 32">
<path d="M27 4l-15 15-7-7-5 5 12 12 20-20z"></path>
</symbol>
<symbol id="icon-home" viewBox="0 0 26 28">
<path d="M22 15.5v7.5c0 0.547-0.453 1-1 1h-6v-6h-4v6h-6c-0.547 0-1-0.453-1-1v-7.5c0-0.031 0.016-0.063 0.016-0.094l8.984-7.406 8.984 7.406c0.016 0.031 0.016 0.063 0.016 0.094zM25.484 14.422l-0.969 1.156c-0.078 0.094-0.203 0.156-0.328 0.172h-0.047c-0.125 0-0.234-0.031-0.328-0.109l-10.813-9.016-10.813 9.016c-0.109 0.078-0.234 0.125-0.375 0.109-0.125-0.016-0.25-0.078-0.328-0.172l-0.969-1.156c-0.172-0.203-0.141-0.531 0.063-0.703l11.234-9.359c0.656-0.547 1.719-0.547 2.375 0l3.813 3.187v-3.047c0-0.281 0.219-0.5 0.5-0.5h3c0.281 0 0.5 0.219 0.5 0.5v6.375l3.422 2.844c0.203 0.172 0.234 0.5 0.063 0.703z"></path>
</symbol>
<!--<symbol id="icon-addthis" viewBox="0 0 32 32">-->
<!--<path fill="#ff6550" style="fill: var(&#45;&#45;color1, #ff6550)" d="M24 17.995h-6.001v5.979h-4v-5.979h-5.999v-3.987h6v-5.98h4.001v5.98h5.999zM28 0.055h-24c-2.203 0.003-3.989 1.784-4 3.987v23.92c0.011 2.2 1.797 3.981 4 3.984h24c2.201-0.003 3.988-1.784 4-3.984v-23.92c-0.012-2.203-1.797-3.983-4-3.987z"></path>-->
<!--</symbol>-->

  <symbol id="icon-sort-desc" viewBox="0 0 32 32">
    <path d="M10 24v-24h-4v24h-5l7 7 7-7h-5z"></path>
    <path d="M14 0h18v4h-18v-4z"></path>
    <path d="M14 6h14v4h-14v-4z"></path>
    <path d="M14 12h10v4h-10v-4z"></path>
    <path d="M14 18h6v4h-6v-4z"></path>
  </symbol>

</defs>
</svg>
